<svg width="28" height="24" viewBox="0 0 28 24" fill="none" xmlns="http://www.w3.org/2000/svg">
<path fill-rule="evenodd" clip-rule="evenodd" d="M0 3.95992C0 3.72301 0.0929922 3.49581 0.258519 3.32828C0.424046 3.16076 0.648549 3.06665 0.88264 3.06665H1.76528C5.65153 3.06665 8.52143 5.28184 10.3697 7.38703C11.1116 8.23769 11.7768 9.15371 12.3576 10.1242C12.9378 9.15331 13.6031 8.23723 14.3455 7.38703C16.1945 5.28184 19.0631 3.06665 22.9506 3.06665V4.8532C19.7764 4.8532 17.3518 6.65775 15.6662 8.57295C14.7566 9.61567 13.9754 10.7662 13.3397 11.9994C13.975 13.2327 14.7557 14.3835 15.6649 15.4265C17.3511 17.3417 19.7804 19.1463 22.9506 19.1463V20.9321C19.0644 20.9321 16.1945 18.7169 14.3462 16.6118C13.6039 15.7615 12.9385 14.8454 12.3583 13.8746C11.7781 14.8455 11.1128 15.7616 10.3704 16.6118C8.52143 18.7183 5.65285 20.9321 1.76528 20.9321H0.88264C0.648549 20.9321 0.424046 20.838 0.258519 20.6705C0.0929922 20.503 5.26095e-08 20.2758 5.26095e-08 20.0389C5.26095e-08 19.8019 0.0929922 19.5747 0.258519 19.4072C0.424046 19.2397 0.648549 19.1456 0.88264 19.1456H1.76528C4.93949 19.1456 7.36412 17.341 9.0497 15.4258C9.95927 14.3831 10.7405 13.2326 11.3762 11.9994C10.7409 10.7661 9.96017 9.61528 9.05101 8.57229C7.36543 6.65775 4.9362 4.8532 1.76528 4.8532H0.88264C0.648549 4.8532 0.424046 4.75909 0.258519 4.59157C0.0929922 4.42404 0 4.19684 0 3.95992H0Z" fill="white"/>
<path d="M22.9506 7.4723V0.447432C22.9504 0.362394 22.9743 0.27908 23.0193 0.207284C23.0643 0.135489 23.1287 0.0781946 23.2048 0.0421376C23.2809 0.00608051 23.3655 -0.00724102 23.4489 0.00373907C23.5322 0.0147192 23.6107 0.0495444 23.6751 0.104121L27.8413 3.61656C27.891 3.65847 27.9309 3.71092 27.9583 3.77019C27.9857 3.82945 27.9999 3.89409 27.9999 3.95953C27.9999 4.02497 27.9857 4.08961 27.9583 4.14888C27.9309 4.20815 27.891 4.26059 27.8413 4.30251L23.6751 7.81561C23.6107 7.87019 23.5322 7.90501 23.4489 7.91599C23.3655 7.92697 23.2809 7.91365 23.2048 7.87759C23.1287 7.84154 23.0643 7.78424 23.0193 7.71245C22.9743 7.64065 22.9504 7.55734 22.9506 7.4723V7.4723ZM22.9506 23.5526V16.5277C22.9504 16.4427 22.9743 16.3593 23.0193 16.2876C23.0643 16.2158 23.1287 16.1585 23.2048 16.1224C23.2809 16.0863 23.3655 16.073 23.4489 16.084C23.5322 16.095 23.6107 16.1298 23.6751 16.1844L27.8413 19.6968C27.891 19.7387 27.9309 19.7912 27.9583 19.8505C27.9857 19.9097 27.9999 19.9744 27.9999 20.0398C27.9999 20.1052 27.9857 20.1699 27.9583 20.2291C27.9309 20.2884 27.891 20.3409 27.8413 20.3828L23.6751 23.8959C23.6107 23.9505 23.5322 23.9853 23.4489 23.9963C23.3655 24.0072 23.2809 23.9939 23.2048 23.9579C23.1287 23.9218 23.0643 23.8645 23.0193 23.7927C22.9743 23.7209 22.9504 23.6376 22.9506 23.5526V23.5526Z" fill="white"/>
</svg>
