<svg width="28" height="24" viewBox="0 0 28 24" fill="none" xmlns="http://www.w3.org/2000/svg">
<path d="M5.79415 1.09066C5.79415 0.947436 5.76918 0.80561 5.72067 0.673285C5.67215 0.540959 5.60104 0.420725 5.5114 0.319448C5.42176 0.21817 5.31534 0.137833 5.19821 0.0830217C5.08109 0.0282108 4.95556 0 4.82878 0C4.70201 0 4.57647 0.0282108 4.45935 0.0830217C4.34223 0.137833 4.23581 0.21817 4.14616 0.319448C4.05652 0.420725 3.98541 0.540959 3.9369 0.673285C3.88838 0.80561 3.86341 0.947436 3.86341 1.09066V20.2733L1.65239 17.7713C1.47108 17.5661 1.22506 17.4507 0.968435 17.4504C0.711811 17.4502 0.465611 17.5651 0.283994 17.77C0.102377 17.9748 0.000221683 18.2527 3.60371e-07 18.5427C-0.000220962 18.8326 0.10151 19.1108 0.282814 19.316L4.14488 23.6766L4.15845 23.6919C4.33973 23.8917 4.58358 24.0025 4.83682 24C5.09006 23.9975 5.33216 23.8819 5.51032 23.6786L9.37239 19.3153C9.55369 19.1107 9.65564 18.8332 9.65581 18.5437C9.65597 18.2542 9.55434 17.9765 9.37327 17.7716C9.19221 17.5668 8.94653 17.4516 8.69029 17.4514C8.43406 17.4512 8.18825 17.5661 8.00695 17.7706L5.79415 20.2726V1.09066ZM13.5183 2.18133C13.2623 2.18133 13.0167 2.06642 12.8357 1.86188C12.6546 1.65734 12.5529 1.37993 12.5529 1.09066C12.5529 0.801402 12.6546 0.523987 12.8357 0.319448C13.0167 0.114909 13.2623 0 13.5183 0H15.4484C15.7045 0 15.95 0.114909 16.1311 0.319448C16.3121 0.523987 16.4138 0.801402 16.4138 1.09066C16.4138 1.37993 16.3121 1.65734 16.1311 1.86188C15.95 2.06642 15.7045 2.18133 15.4484 2.18133H13.5183ZM13.5183 8.72598C13.2623 8.72598 13.0167 8.61107 12.8357 8.40653C12.6546 8.20199 12.5529 7.92458 12.5529 7.63531C12.5529 7.34605 12.6546 7.06864 12.8357 6.8641C13.0167 6.65956 13.2623 6.54465 13.5183 6.54465H19.3111C19.5671 6.54465 19.8127 6.65956 19.9937 6.8641C20.1747 7.06864 20.2765 7.34605 20.2765 7.63531C20.2765 7.92458 20.1747 8.20199 19.9937 8.40653C19.8127 8.61107 19.5671 8.72598 19.3111 8.72598H13.5183ZM13.5183 15.2706C13.3915 15.2706 13.266 15.2424 13.1489 15.1876C13.0317 15.1328 12.9253 15.0525 12.8357 14.9512C12.746 14.8499 12.6749 14.7297 12.6264 14.5973C12.5779 14.465 12.5529 14.3232 12.5529 14.18C12.5529 14.0367 12.5779 13.8949 12.6264 13.7626C12.6749 13.6303 12.746 13.51 12.8357 13.4087C12.9253 13.3075 13.0317 13.2271 13.1489 13.1723C13.266 13.1175 13.3915 13.0893 13.5183 13.0893H23.1726C23.2993 13.0893 23.4249 13.1175 23.542 13.1723C23.6591 13.2271 23.7655 13.3075 23.8552 13.4087C23.9448 13.51 24.0159 13.6303 24.0644 13.7626C24.113 13.8949 24.1379 14.0367 24.1379 14.18C24.1379 14.3232 24.113 14.465 24.0644 14.5973C24.0159 14.7297 23.9448 14.8499 23.8552 14.9512C23.7655 15.0525 23.6591 15.1328 23.542 15.1876C23.4249 15.2424 23.2993 15.2706 23.1726 15.2706H13.5183ZM12.5529 20.7246C12.5529 21.0139 12.6546 21.2913 12.8357 21.4958C13.0167 21.7004 13.2623 21.8153 13.5183 21.8153H27.0346C27.2907 21.8153 27.5362 21.7004 27.7173 21.4958C27.8983 21.2913 28 21.0139 28 20.7246C28 20.4354 27.8983 20.1579 27.7173 19.9534C27.5362 19.7489 27.2907 19.6339 27.0346 19.6339H13.5177C13.3909 19.6339 13.2653 19.6622 13.1481 19.717C13.031 19.7719 12.9245 19.8523 12.8349 19.9536C12.7452 20.055 12.6741 20.1753 12.6256 20.3077C12.5772 20.4401 12.5522 20.582 12.5523 20.7253L12.5529 20.7246Z" fill="white"/>
</svg>
