<svg width="144" height="32" viewBox="0 0 144 32" fill="none" xmlns="http://www.w3.org/2000/svg">
<path d="M38.725 0H34.7604L30.9202 5.06436V19.1042H34.8306V12.1327H38.6407V19.1042H42.5512V5.06436L38.725 0ZM38.6407 8.38784H34.8306V5.90102L36.501 3.6642H36.9693L38.6407 5.90102V8.38784Z" fill="#2F2F2F"/>
<path d="M51.9353 3.96556H56.6098V0.23584H50.1165L46.2903 5.28104V19.1072H50.2007V12.1306H55.3334V8.3878H50.1897V6.26589L51.9353 3.96556Z" fill="#2F2F2F"/>
<path d="M80.2017 0.224609V13.4601L78.5423 15.6687H78.0499L76.3855 13.4601V0.224609H72.4751V14.2786L76.3735 19.3288H80.2017L84.1051 14.2786V0.224609H80.2017Z" fill="#2F2F2F"/>
<path d="M113.264 3.96556V0.23584H102.951V14.0781L106.777 19.1042H113.265V15.4017H108.621L106.858 13.0631V11.8191H112.172V8.14184H106.858V3.96556H113.264Z" fill="#2F2F2F"/>
<path d="M95.5987 0H91.6341L87.7939 5.06436V19.1042H91.7043V12.1327H95.5145V19.1042H99.4249V5.06436L95.5987 0ZM95.5145 8.38784H91.7043V5.90102L93.3748 3.6642H93.843L95.5145 5.90102V8.38784Z" fill="#2F2F2F"/>
<path d="M125.621 11.3654L128.506 8.31006V3.65798L125.85 0.239746H116.788V19.1081H120.649V12.0942H121.78L124.826 16.6727V19.101H128.683V15.6737C128.683 15.6737 126.172 12.1698 125.621 11.3654ZM123.177 8.38062H120.647V3.97148H123.685L124.597 4.82125V7.46734L123.746 8.38667L123.177 8.38062Z" fill="#2F2F2F"/>
<path d="M24.374 11.3615L27.2597 8.30813V3.65405L24.6037 0.236816H15.5415V19.1032H19.4028V12.0943H20.5338L23.5789 16.6728V19.1011H27.4362V15.6738C27.4362 15.6738 24.9255 12.1669 24.374 11.3615ZM19.4038 8.37668V3.96755H22.4409L23.3533 4.81732V7.46441L22.499 8.38374L19.4038 8.37668Z" fill="#2F2F2F"/>
<path d="M141.245 8.35148C141.516 7.85351 143.745 3.92622 143.745 3.92622V0.236816H139.883V3.2216L136.967 8.3787H135.971V0.236816H132.114V19.1082H135.974V12.1336H139.148L140.069 12.9804V19.1072H143.952V11.7536L141.245 8.35148Z" fill="#2F2F2F"/>
<path d="M7.7687 3.22765L4.85494 8.3787H3.85928V0.236816H0V19.1082H3.86129V12.1336H7.03073L7.95219 12.9804V19.1072H11.8365V11.7536C11.8365 11.7536 9.20252 8.4422 9.12431 8.35148C9.40105 7.85351 11.631 3.92622 11.631 3.92622V0.236816H7.7687" fill="#2F2F2F"/>
<path d="M58.8137 3.9694H62.2308V19.104H66.0981V3.9694H69.5273V0.241699H58.8137V3.9694Z" fill="#2F2F2F"/>
<path d="M75.5002 30.593L73.3705 28.1555V30.593H72.5684V25.5669H73.3705V27.9862L75.4922 25.5669H76.4608L74.2549 28.0517L76.5048 30.5919L75.5002 30.593Z" fill="#2F2F2F"/>
<path d="M80.2037 28.1412V30.5937H79.4096V28.3942C79.4096 27.8257 79.1549 27.5555 78.6646 27.5555C78.5585 27.5526 78.4529 27.5715 78.3542 27.611C78.2556 27.6505 78.166 27.7098 78.0909 27.7852C78.0158 27.8607 77.9569 27.9508 77.9176 28.0499C77.8783 28.1491 77.8595 28.2553 77.8624 28.362V30.5907H77.0703V26.9074H77.6809L77.7682 27.4537H77.7882C77.9047 27.2617 78.0684 27.1031 78.2635 26.9932C78.4586 26.8832 78.6785 26.8255 78.9022 26.8257C79.0771 26.8125 79.2528 26.8375 79.4171 26.899C79.5815 26.9605 79.7306 27.0571 79.8543 27.1821C79.978 27.3072 80.0732 27.4576 80.1335 27.6232C80.1938 27.7887 80.2178 27.9655 80.2037 28.1412Z" fill="#2F2F2F"/>
<path d="M81.0159 28.746C81.0263 28.377 81.1445 28.0194 81.3559 27.7176C81.5672 27.4159 81.8623 27.1834 82.2043 27.0491C82.5462 26.9149 82.9199 26.8848 83.2787 26.9628C83.6375 27.0407 83.9656 27.2232 84.2219 27.4873C84.4783 27.7515 84.6515 28.0858 84.7201 28.4483C84.7887 28.8109 84.7496 29.1857 84.6076 29.5261C84.4657 29.8664 84.2271 30.1572 83.9218 30.3621C83.6165 30.567 83.2579 30.677 82.8909 30.6783C82.6396 30.6821 82.3902 30.6343 82.1579 30.5379C81.9256 30.4416 81.7153 30.2986 81.5398 30.1177C81.3643 29.9369 81.2274 29.7219 81.1373 29.4861C81.0472 29.2502 81.0059 28.9984 81.0159 28.746ZM83.9457 28.746C83.9215 28.5396 83.8384 28.3446 83.7066 28.1845C83.5747 28.0245 83.3996 27.9062 83.2024 27.8439C83.0052 27.7816 82.7943 27.778 82.5951 27.8335C82.3959 27.8889 82.2168 28.0011 82.0796 28.1565C81.9424 28.312 81.8527 28.504 81.8215 28.7094C81.7904 28.9149 81.819 29.125 81.9038 29.3145C81.9887 29.504 82.1263 29.6647 82.3 29.7774C82.4737 29.8901 82.6761 29.9499 82.8828 29.9495C83.0326 29.9446 83.1797 29.9091 83.3153 29.8451C83.4509 29.7812 83.5722 29.6901 83.6716 29.5775C83.7711 29.4648 83.8467 29.333 83.8938 29.1901C83.9409 29.0471 83.9585 28.896 83.9457 28.746Z" fill="#2F2F2F"/>
<path d="M87.9362 27.8972H87.9162L87.09 30.5927H86.1756L85.1619 26.9043H85.9951L86.6749 29.7268H86.6939L87.5342 26.9043H88.3363L89.1755 29.7268H89.1896L89.8914 26.9043H90.6725L89.6648 30.5927H88.7625L87.9362 27.8972Z" fill="#2F2F2F"/>
<path d="M93.8691 27.3178H93.8811C94.0003 27.1592 94.1548 27.031 94.3323 26.9434C94.5097 26.8559 94.7052 26.8115 94.9028 26.8137C95.0802 26.797 95.259 26.82 95.4264 26.8811C95.5939 26.9422 95.7457 27.04 95.871 27.1673C95.9963 27.2946 96.0919 27.4483 96.1509 27.6172C96.2099 27.7862 96.2309 27.9662 96.2123 28.1443V30.5898H95.4202V28.3903C95.4202 27.8228 95.1775 27.5466 94.6812 27.5466C94.574 27.5376 94.4661 27.5519 94.3649 27.5884C94.2636 27.625 94.1715 27.683 94.0944 27.7585C94.0174 27.834 93.9574 27.9252 93.9186 28.0261C93.8797 28.1269 93.8628 28.235 93.8691 28.3429V30.5919H93.075V25.1787H93.8691V27.3178Z" fill="#2F2F2F"/>
<path d="M97.0276 28.746C97.038 28.377 97.1563 28.0194 97.3677 27.7176C97.579 27.4159 97.874 27.1834 98.216 27.0491C98.5579 26.9149 98.9316 26.8848 99.2904 26.9628C99.6493 27.0407 99.9774 27.2232 100.234 27.4873C100.49 27.7515 100.663 28.0858 100.732 28.4483C100.8 28.8109 100.761 29.1857 100.619 29.5261C100.477 29.8664 100.239 30.1572 99.9336 30.3621C99.6283 30.567 99.2697 30.677 98.9026 30.6783C98.6513 30.6821 98.4019 30.6343 98.1696 30.5379C97.9373 30.4416 97.727 30.2986 97.5516 30.1177C97.3761 29.9369 97.2391 29.7219 97.149 29.4861C97.0589 29.2502 97.0176 28.9984 97.0276 28.746ZM99.9574 28.746C99.9334 28.5392 99.8505 28.3439 99.7185 28.1836C99.5866 28.0232 99.4113 27.9046 99.2139 27.8421C99.0164 27.7796 98.8052 27.7759 98.6057 27.8314C98.4062 27.8869 98.2269 27.9992 98.0894 28.1549C97.952 28.3105 97.8623 28.5028 97.8311 28.7085C97.7999 28.9143 97.8287 29.1247 97.9138 29.3144C97.9989 29.5041 98.1368 29.665 98.3108 29.7777C98.4848 29.8904 98.6875 29.9501 98.8946 29.9495C99.0443 29.9446 99.1914 29.9091 99.327 29.8451C99.4627 29.7812 99.5839 29.6901 99.6833 29.5775C99.7828 29.4648 99.8584 29.333 99.9055 29.1901C99.9526 29.0471 99.9703 28.896 99.9574 28.746Z" fill="#2F2F2F"/>
<path d="M103.946 27.8972H103.926L103.1 30.5927H102.184L101.17 26.9043H102.004L102.681 29.7268H102.702L103.542 26.9043H104.344L105.184 29.7268H105.196L105.898 26.9043H106.679L105.671 30.5927H104.769L103.946 27.8972Z" fill="#2F2F2F"/>
<path d="M109.973 26.9042H110.987V27.5796H109.973V29.2166C109.963 29.319 109.976 29.4224 110.012 29.519C110.047 29.6156 110.104 29.7029 110.177 29.7743C110.251 29.8458 110.34 29.8996 110.437 29.9316C110.534 29.9637 110.638 29.9733 110.739 29.9595C110.85 29.9571 110.96 29.9457 111.069 29.9253V30.6087C110.907 30.64 110.743 30.6559 110.579 30.6561C110.392 30.6734 110.204 30.6491 110.028 30.5849C109.851 30.5207 109.691 30.4182 109.559 30.2846C109.427 30.151 109.325 29.9898 109.262 29.8123C109.199 29.6348 109.176 29.4455 109.194 29.2579V27.5806H108.656V26.9052H109.216V26.0474H109.982L109.973 26.9042Z" fill="#2F2F2F"/>
<path d="M111.544 28.746C111.555 28.377 111.673 28.0194 111.884 27.7176C112.096 27.4159 112.391 27.1834 112.733 27.0491C113.075 26.9149 113.448 26.8848 113.807 26.9628C114.166 27.0407 114.494 27.2232 114.75 27.4873C115.007 27.7515 115.18 28.0858 115.249 28.4483C115.317 28.8109 115.278 29.1857 115.136 29.5261C114.994 29.8664 114.755 30.1572 114.45 30.3621C114.145 30.567 113.786 30.677 113.419 30.6783C113.168 30.6821 112.919 30.6343 112.686 30.5379C112.454 30.4416 112.244 30.2986 112.068 30.1177C111.893 29.9369 111.756 29.7219 111.666 29.4861C111.576 29.2502 111.534 28.9984 111.544 28.746ZM114.474 28.746C114.45 28.5391 114.367 28.3436 114.236 28.1829C114.104 28.0223 113.929 27.9034 113.731 27.8406C113.534 27.7778 113.322 27.7738 113.123 27.829C112.923 27.8841 112.743 27.9962 112.606 28.1517C112.468 28.3071 112.378 28.4994 112.346 28.7051C112.314 28.9109 112.343 29.1215 112.427 29.3116C112.512 29.5016 112.65 29.6629 112.823 29.7761C112.997 29.8893 113.2 29.9495 113.407 29.9495C113.557 29.9452 113.705 29.91 113.841 29.8463C113.977 29.7826 114.099 29.6916 114.199 29.5789C114.298 29.4662 114.374 29.3342 114.422 29.191C114.469 29.0478 114.487 28.8963 114.474 28.746Z" fill="#2F2F2F"/>
<path d="M117.705 28.745C117.683 28.5082 117.709 28.2695 117.782 28.0431C117.854 27.8167 117.97 27.6072 118.125 27.4269C118.279 27.2467 118.467 27.0995 118.679 26.9939C118.891 26.8884 119.122 26.8267 119.358 26.8126C119.604 26.8079 119.848 26.8693 120.062 26.9905C120.277 27.1117 120.456 27.2883 120.58 27.5021V25.1836H121.374V30.5937H120.715L120.62 29.9657C120.494 30.1867 120.312 30.3701 120.093 30.4971C119.873 30.624 119.624 30.6901 119.37 30.6885C119.133 30.6738 118.901 30.6114 118.688 30.5052C118.475 30.3989 118.285 30.2509 118.13 30.0697C117.975 29.8886 117.857 29.6781 117.784 29.4506C117.711 29.223 117.684 28.9831 117.705 28.745ZM120.593 28.745C120.566 28.5433 120.481 28.354 120.349 28.1995C120.218 28.045 120.044 27.9319 119.85 27.8738C119.656 27.8157 119.45 27.815 119.255 27.8718C119.061 27.9286 118.887 28.0405 118.754 28.194C118.621 28.3476 118.535 28.5364 118.506 28.7379C118.477 28.9393 118.507 29.1449 118.591 29.3299C118.675 29.515 118.811 29.6718 118.981 29.7815C119.152 29.8912 119.35 29.9492 119.553 29.9486C119.701 29.9434 119.847 29.9076 119.982 29.8432C120.116 29.7789 120.236 29.6874 120.334 29.5744C120.431 29.4615 120.505 29.3296 120.549 29.1869C120.594 29.0442 120.609 28.8938 120.593 28.745Z" fill="#2F2F2F"/>
<path d="M125.621 28.9922H122.983C123.026 29.2894 123.178 29.5596 123.41 29.7495C123.641 29.9395 123.935 30.0354 124.233 30.0184C124.669 30.0121 125.091 29.8576 125.428 29.5799V30.2966C125.052 30.5524 124.606 30.6867 124.152 30.6817C123.654 30.679 123.177 30.4828 122.821 30.1342C122.464 29.7856 122.255 29.3117 122.239 28.8118C122.222 28.312 122.399 27.8251 122.732 27.4534C123.064 27.0816 123.527 26.8539 124.024 26.8179C124.256 26.8192 124.486 26.8703 124.698 26.9677C124.91 27.0652 125.099 27.2068 125.252 27.3831C125.405 27.5594 125.519 27.7665 125.587 27.9906C125.654 28.2146 125.674 28.4506 125.644 28.6827C125.643 28.7863 125.635 28.8897 125.621 28.9922ZM124.888 28.458C124.9 28.3349 124.886 28.2106 124.848 28.093C124.81 27.9755 124.748 27.8673 124.666 27.7752C124.583 27.6831 124.483 27.6093 124.371 27.5583C124.259 27.5073 124.137 27.4804 124.014 27.4791C123.753 27.4872 123.503 27.5911 123.313 27.7714C123.122 27.9517 123.004 28.1959 122.98 28.458H124.888Z" fill="#2F2F2F"/>
<path d="M125.975 26.9043H126.822L127.742 29.7268H127.762L128.683 26.9043H129.503L128.165 30.5927H127.308L125.975 26.9043Z" fill="#2F2F2F"/>
<path d="M133.231 28.9922H130.59C130.633 29.2894 130.785 29.5596 131.017 29.7495C131.248 29.9395 131.542 30.0354 131.84 30.0184C132.277 30.0124 132.699 29.8579 133.037 29.5799V30.2966C132.661 30.5524 132.215 30.6867 131.761 30.6817C131.263 30.679 130.786 30.4828 130.43 30.1342C130.073 29.7856 129.865 29.3117 129.848 28.8118C129.831 28.312 130.008 27.8251 130.341 27.4534C130.673 27.0816 131.136 26.8539 131.633 26.8179C131.865 26.8192 132.095 26.8703 132.307 26.9677C132.519 27.0652 132.707 27.2068 132.86 27.3832C133.013 27.5596 133.127 27.7667 133.195 27.9907C133.262 28.2148 133.281 28.4507 133.251 28.6827C133.252 28.7862 133.245 28.8897 133.231 28.9922ZM132.5 28.458C132.512 28.3349 132.498 28.2106 132.46 28.093C132.422 27.9755 132.36 27.8673 132.278 27.7752C132.195 27.6831 132.095 27.6093 131.983 27.5583C131.871 27.5073 131.75 27.4804 131.627 27.4791C131.365 27.4873 131.115 27.5913 130.925 27.7716C130.734 27.9518 130.615 28.1959 130.591 28.458H132.5Z" fill="#2F2F2F"/>
<path d="M134.112 25.1826H134.904V30.5927H134.112V25.1826Z" fill="#2F2F2F"/>
<path d="M135.764 28.746C135.774 28.377 135.892 28.0194 136.104 27.7176C136.315 27.4159 136.61 27.1834 136.952 27.0491C137.294 26.9149 137.668 26.8848 138.027 26.9628C138.385 27.0407 138.713 27.2232 138.97 27.4873C139.226 27.7515 139.399 28.0858 139.468 28.4483C139.537 28.8109 139.497 29.1857 139.355 29.5261C139.213 29.8664 138.975 30.1572 138.67 30.3621C138.364 30.567 138.006 30.677 137.639 30.6783C137.387 30.682 137.138 30.6341 136.906 30.5377C136.674 30.4412 136.463 30.2982 136.288 30.1174C136.112 29.9366 135.975 29.7217 135.885 29.4859C135.795 29.2501 135.754 28.9984 135.764 28.746ZM138.693 28.746C138.706 28.5962 138.688 28.4455 138.641 28.3029C138.594 28.1603 138.519 28.0289 138.419 27.9165C138.32 27.8041 138.199 27.7132 138.064 27.6492C137.929 27.5853 137.782 27.5496 137.633 27.5444C137.39 27.5153 137.145 27.5611 136.929 27.6755C136.713 27.7899 136.537 27.9676 136.424 28.1851C136.311 28.4025 136.266 28.6493 136.296 28.8928C136.326 29.1363 136.428 29.365 136.59 29.5485C136.752 29.732 136.966 29.8616 137.203 29.9202C137.44 29.9788 137.689 29.9635 137.917 29.8764C138.145 29.7894 138.342 29.6346 138.48 29.4327C138.619 29.2308 138.693 28.9913 138.693 28.746Z" fill="#2F2F2F"/>
<path d="M140.34 26.9043H140.998L141.085 27.5323C141.212 27.312 141.394 27.1292 141.614 27.0023C141.833 26.8755 142.082 26.809 142.335 26.8096C142.796 26.8766 143.217 27.1076 143.523 27.4605C143.828 27.8135 143.998 28.2649 144 28.7328C144.002 29.2006 143.838 29.6538 143.536 30.01C143.234 30.3661 142.815 30.6015 142.355 30.6734C142.109 30.6747 141.866 30.6119 141.651 30.4911C141.435 30.3703 141.255 30.1956 141.126 29.9839V31.9999H140.334L140.34 26.9043ZM143.209 28.745C143.18 28.5441 143.095 28.3556 142.963 28.2019C142.832 28.0482 142.659 27.9357 142.465 27.8779C142.272 27.82 142.066 27.8191 141.872 27.8753C141.678 27.9316 141.504 28.0426 141.371 28.1952C141.238 28.3478 141.151 28.5355 141.121 28.7362C141.091 28.9368 141.119 29.1419 141.201 29.3272C141.284 29.5124 141.417 29.67 141.586 29.7812C141.755 29.8924 141.952 29.9526 142.154 29.9546C142.303 29.9487 142.45 29.9122 142.585 29.8475C142.72 29.7827 142.841 29.691 142.939 29.578C143.038 29.4649 143.113 29.3328 143.159 29.1898C143.205 29.0468 143.222 28.8958 143.209 28.746V28.745Z" fill="#2F2F2F"/>
</svg>
