<svg width="144" height="33" viewBox="0 0 144 33" fill="none" xmlns="http://www.w3.org/2000/svg">
<path d="M38.725 0H34.7604L30.9202 5.22262V19.7012H34.8306V12.5118H38.6407V19.7012H42.5512V5.22262L38.725 0ZM38.6407 8.64996H34.8306V6.08543L36.501 3.7787H36.9693L38.6407 6.08543V8.64996Z" fill="white"/>
<path d="M51.9353 4.08944H56.6098V0.243164H50.1165L46.2903 5.44603V19.7043H50.2007V12.5097H55.3334V8.64987H50.1897V6.46165L51.9353 4.08944Z" fill="white"/>
<path d="M80.2017 0.231934V13.881L78.5423 16.1586H78.0499L76.3855 13.881V0.231934H72.4751V14.7251L76.3735 19.9332H80.2017L84.1051 14.7251V0.231934H80.2017Z" fill="white"/>
<path d="M113.264 4.08944V0.243164H102.951V14.518L106.777 19.7012H113.265V15.8829H108.621L106.858 13.4712V12.1884H112.172V8.39623H106.858V4.08944H113.264Z" fill="white"/>
<path d="M95.5987 0H91.6341L87.7939 5.22262V19.7012H91.7043V12.5118H95.5145V19.7012H99.4249V5.22262L95.5987 0ZM95.5145 8.64996H91.7043V6.08543L93.3748 3.7787H93.843L95.5145 6.08543V8.64996Z" fill="white"/>
<path d="M125.621 11.7206L128.506 8.56982V3.77237L125.85 0.247314H116.788V19.7053H120.649V12.4722H121.78L124.826 17.1938V19.698H128.683V16.1636C128.683 16.1636 126.172 12.5502 125.621 11.7206ZM123.177 8.64259H120.647V4.09567H123.685L124.597 4.97199V7.70077L123.746 8.64883L123.177 8.64259Z" fill="white"/>
<path d="M24.374 11.7167L27.2597 8.56793V3.7684L24.6037 0.244385H15.5415V19.7003H19.4028V12.4724H20.5338L23.5789 17.194V19.6982H27.4362V16.1638C27.4362 16.1638 24.9255 12.5473 24.374 11.7167ZM19.4038 8.63862V4.0917H22.4409L23.3533 4.96803V7.69784L22.499 8.6459L19.4038 8.63862Z" fill="white"/>
<path d="M141.245 8.61263C141.516 8.0991 143.745 4.04908 143.745 4.04908V0.244385H139.883V3.32244L136.967 8.6407H135.971V0.244385H132.114V19.7055H135.974V12.513H139.148L140.069 13.3862V19.7045H143.952V12.1211L141.245 8.61263Z" fill="white"/>
<path d="M7.7687 3.32868L4.85494 8.6407H3.85928V0.244385H0V19.7055H3.86129V12.513H7.03073L7.95219 13.3862V19.7045H11.8365V12.1211C11.8365 12.1211 9.20252 8.70619 9.12431 8.61263C9.40105 8.0991 11.631 4.04908 11.631 4.04908V0.244385H7.7687" fill="white"/>
<path d="M58.8137 4.09371H62.2308V19.7013H66.0981V4.09371H69.5273V0.249512H58.8137V4.09371Z" fill="white"/>
<path d="M75.5002 31.5488L73.3705 29.0353V31.5488H72.5684V26.3657H73.3705V28.8606L75.4922 26.3657H76.4608L74.2549 28.9282L76.5048 31.5478L75.5002 31.5488Z" fill="white"/>
<path d="M80.2037 29.0206V31.5497H79.4096V29.2815C79.4096 28.6952 79.1549 28.4166 78.6646 28.4166C78.5585 28.4136 78.4529 28.433 78.3542 28.4738C78.2556 28.5145 78.166 28.5756 78.0909 28.6535C78.0158 28.7313 77.9569 28.8242 77.9176 28.9264C77.8783 29.0287 77.8595 29.1382 77.8624 29.2482V31.5466H77.0703V27.7482H77.6809L77.7682 28.3116H77.7882C77.9047 28.1136 78.0684 27.95 78.2635 27.8366C78.4586 27.7232 78.6785 27.6637 78.9022 27.664C79.0771 27.6503 79.2528 27.6761 79.4171 27.7396C79.5815 27.803 79.7306 27.9026 79.8543 28.0315C79.978 28.1604 80.0732 28.3156 80.1335 28.4863C80.1938 28.6571 80.2178 28.8393 80.2037 29.0206Z" fill="white"/>
<path d="M81.0159 29.6443C81.0263 29.2639 81.1445 28.895 81.3559 28.5839C81.5672 28.2727 81.8623 28.0329 82.2043 27.8944C82.5462 27.756 82.9199 27.725 83.2787 27.8054C83.6375 27.8858 83.9656 28.0739 84.2219 28.3464C84.4783 28.6188 84.6515 28.9635 84.7201 29.3374C84.7887 29.7113 84.7496 30.0978 84.6076 30.4488C84.4657 30.7998 84.2271 31.0996 83.9218 31.311C83.6165 31.5223 83.2579 31.6357 82.8909 31.6371C82.6396 31.641 82.3902 31.5917 82.1579 31.4923C81.9256 31.3929 81.7153 31.2454 81.5398 31.0589C81.3643 30.8724 81.2274 30.6508 81.1373 30.4076C81.0472 30.1644 81.0059 29.9046 81.0159 29.6443ZM83.9457 29.6443C83.9215 29.4315 83.8384 29.2304 83.7066 29.0653C83.5747 28.9003 83.3996 28.7783 83.2024 28.7141C83.0052 28.6498 82.7943 28.6461 82.5951 28.7033C82.3959 28.7605 82.2168 28.8762 82.0796 29.0365C81.9424 29.1968 81.8527 29.3948 81.8215 29.6066C81.7904 29.8185 81.819 30.0352 81.9038 30.2306C81.9887 30.426 82.1263 30.5918 82.3 30.708C82.4737 30.8242 82.6761 30.8858 82.8828 30.8855C83.0326 30.8804 83.1797 30.8438 83.3153 30.7778C83.4509 30.7119 83.5722 30.6179 83.6716 30.5018C83.7711 30.3857 83.8467 30.2497 83.8938 30.1023C83.9409 29.9549 83.9585 29.799 83.9457 29.6443Z" fill="white"/>
<path d="M87.9362 28.7691H87.9162L87.09 31.5488H86.1756L85.1619 27.7451H85.9951L86.6749 30.6558H86.6939L87.5342 27.7451H88.3363L89.1755 30.6558H89.1896L89.8914 27.7451H90.6725L89.6648 31.5488H88.7625L87.9362 28.7691Z" fill="white"/>
<path d="M93.8691 28.1715H93.8811C94.0003 28.008 94.1548 27.8757 94.3323 27.7854C94.5097 27.6952 94.7052 27.6494 94.9028 27.6517C95.0802 27.6344 95.259 27.6581 95.4264 27.7212C95.5939 27.7842 95.7457 27.885 95.871 28.0163C95.9963 28.1476 96.0919 28.3061 96.1509 28.4803C96.2099 28.6546 96.2309 28.8402 96.2123 29.0239V31.5458H95.4202V29.2775C95.4202 28.6923 95.1775 28.4074 94.6812 28.4074C94.574 28.3982 94.4661 28.4129 94.3649 28.4506C94.2636 28.4883 94.1715 28.5481 94.0944 28.626C94.0174 28.7038 93.9574 28.7979 93.9186 28.9019C93.8797 29.0059 93.8628 29.1173 93.8691 29.2287V31.5479H93.075V25.9656H93.8691V28.1715Z" fill="white"/>
<path d="M97.0276 29.6443C97.038 29.2639 97.1563 28.895 97.3677 28.5839C97.579 28.2727 97.874 28.0329 98.216 27.8944C98.5579 27.756 98.9316 27.725 99.2904 27.8054C99.6493 27.8858 99.9774 28.0739 100.234 28.3464C100.49 28.6188 100.663 28.9635 100.732 29.3374C100.8 29.7113 100.761 30.0978 100.619 30.4488C100.477 30.7998 100.239 31.0996 99.9336 31.311C99.6283 31.5223 99.2697 31.6357 98.9026 31.6371C98.6513 31.641 98.4019 31.5917 98.1696 31.4923C97.9373 31.3929 97.727 31.2454 97.5516 31.0589C97.3761 30.8724 97.2391 30.6508 97.149 30.4076C97.0589 30.1644 97.0176 29.9046 97.0276 29.6443ZM99.9574 29.6443C99.9334 29.4311 99.8505 29.2297 99.7185 29.0643C99.5866 28.8989 99.4113 28.7767 99.2139 28.7122C99.0164 28.6478 98.8052 28.644 98.6057 28.7012C98.4062 28.7584 98.2269 28.8743 98.0894 29.0348C97.952 29.1953 97.8623 29.3936 97.8311 29.6057C97.7999 29.8179 97.8287 30.0349 97.9138 30.2305C97.9989 30.4261 98.1368 30.5921 98.3108 30.7083C98.4848 30.8245 98.6875 30.8861 98.8946 30.8855C99.0443 30.8804 99.1914 30.8438 99.327 30.7778C99.4627 30.7119 99.5839 30.6179 99.6833 30.5018C99.7828 30.3857 99.8584 30.2497 99.9055 30.1023C99.9526 29.9549 99.9703 29.799 99.9574 29.6443Z" fill="white"/>
<path d="M103.946 28.7691H103.926L103.1 31.5488H102.184L101.17 27.7451H102.004L102.681 30.6558H102.702L103.542 27.7451H104.344L105.184 30.6558H105.196L105.898 27.7451H106.679L105.671 31.5488H104.769L103.946 28.7691Z" fill="white"/>
<path d="M109.973 27.7452H110.987V28.4417H109.973V30.1299C109.963 30.2355 109.976 30.3421 110.012 30.4417C110.047 30.5413 110.104 30.6313 110.177 30.705C110.251 30.7787 110.34 30.8342 110.437 30.8672C110.534 30.9003 110.638 30.9101 110.739 30.896C110.85 30.8935 110.96 30.8817 111.069 30.8607V31.5655C110.907 31.5977 110.743 31.6141 110.579 31.6143C110.392 31.6322 110.204 31.6072 110.028 31.5409C109.851 31.4747 109.691 31.369 109.559 31.2312C109.427 31.0935 109.325 30.9272 109.262 30.7442C109.199 30.5612 109.176 30.3659 109.194 30.1725V28.4427H108.656V27.7462H109.216V26.8616H109.982L109.973 27.7452Z" fill="white"/>
<path d="M111.544 29.6443C111.555 29.2639 111.673 28.895 111.884 28.5839C112.096 28.2727 112.391 28.0329 112.733 27.8944C113.075 27.756 113.448 27.725 113.807 27.8054C114.166 27.8858 114.494 28.0739 114.75 28.3464C115.007 28.6188 115.18 28.9635 115.249 29.3374C115.317 29.7113 115.278 30.0978 115.136 30.4488C114.994 30.7998 114.755 31.0996 114.45 31.311C114.145 31.5223 113.786 31.6357 113.419 31.6371C113.168 31.641 112.919 31.5917 112.686 31.4923C112.454 31.3929 112.244 31.2454 112.068 31.0589C111.893 30.8724 111.756 30.6508 111.666 30.4076C111.576 30.1644 111.534 29.9046 111.544 29.6443ZM114.474 29.6443C114.45 29.431 114.367 29.2294 114.236 29.0637C114.104 28.898 113.929 28.7754 113.731 28.7107C113.534 28.6459 113.322 28.6417 113.123 28.6987C112.923 28.7556 112.743 28.8711 112.606 29.0315C112.468 29.1918 112.378 29.39 112.346 29.6022C112.314 29.8145 112.343 30.0316 112.427 30.2276C112.512 30.4235 112.65 30.5899 112.823 30.7066C112.997 30.8234 113.2 30.8855 113.407 30.8855C113.557 30.881 113.705 30.8448 113.841 30.779C113.977 30.7133 114.099 30.6195 114.199 30.5033C114.298 30.3871 114.374 30.2509 114.422 30.1032C114.469 29.9556 114.487 29.7994 114.474 29.6443Z" fill="white"/>
<path d="M117.705 29.6434C117.683 29.3992 117.709 29.1531 117.782 28.9196C117.854 28.6861 117.97 28.47 118.125 28.2842C118.279 28.0983 118.467 27.9465 118.679 27.8376C118.891 27.7288 119.122 27.6652 119.358 27.6506C119.604 27.6458 119.848 27.7091 120.062 27.8341C120.277 27.9591 120.456 28.1412 120.58 28.3616V25.9707H121.374V31.5499H120.715L120.62 30.9023C120.494 31.1302 120.312 31.3192 120.093 31.4502C119.873 31.5812 119.624 31.6493 119.37 31.6476C119.133 31.6324 118.901 31.5682 118.688 31.4586C118.475 31.349 118.285 31.1963 118.13 31.0095C117.975 30.8228 117.857 30.6056 117.784 30.371C117.711 30.1364 117.684 29.889 117.705 29.6434ZM120.593 29.6434C120.566 29.4354 120.481 29.2401 120.349 29.0808C120.218 28.9215 120.044 28.8049 119.85 28.745C119.656 28.685 119.45 28.6843 119.255 28.7429C119.061 28.8014 118.887 28.9168 118.754 29.0752C118.621 29.2336 118.535 29.4283 118.506 29.6361C118.477 29.8438 118.507 30.0558 118.591 30.2466C118.675 30.4375 118.811 30.5991 118.981 30.7123C119.152 30.8254 119.35 30.8852 119.553 30.8846C119.701 30.8793 119.847 30.8423 119.982 30.7759C120.116 30.7096 120.236 30.6152 120.334 30.4988C120.431 30.3823 120.505 30.2463 120.549 30.0991C120.594 29.9519 120.609 29.7968 120.593 29.6434Z" fill="white"/>
<path d="M125.621 29.898H122.983C123.026 30.2045 123.178 30.4832 123.41 30.679C123.641 30.8749 123.935 30.9738 124.233 30.9563C124.669 30.9498 125.091 30.7905 125.428 30.5041V31.2432C125.052 31.507 124.606 31.6455 124.152 31.6403C123.654 31.6376 123.177 31.4353 122.821 31.0757C122.464 30.7162 122.255 30.2275 122.239 29.7121C122.222 29.1966 122.399 28.6945 122.732 28.3111C123.064 27.9278 123.527 27.6929 124.024 27.6558C124.256 27.6571 124.486 27.7098 124.698 27.8103C124.91 27.9108 125.099 28.0568 125.252 28.2387C125.405 28.4205 125.519 28.634 125.587 28.8651C125.654 29.0962 125.674 29.3395 125.644 29.5789C125.643 29.6857 125.635 29.7923 125.621 29.898ZM124.888 29.3471C124.9 29.2202 124.886 29.092 124.848 28.9708C124.81 28.8496 124.748 28.7379 124.666 28.643C124.583 28.5481 124.483 28.4719 124.371 28.4193C124.259 28.3668 124.137 28.339 124.014 28.3377C123.753 28.346 123.503 28.4532 123.313 28.6391C123.122 28.8251 123.004 29.0769 122.98 29.3471H124.888Z" fill="white"/>
<path d="M125.975 27.7451H126.822L127.742 30.6558H127.762L128.683 27.7451H129.503L128.165 31.5488H127.308L125.975 27.7451Z" fill="white"/>
<path d="M133.231 29.898H130.59C130.633 30.2045 130.785 30.4832 131.017 30.679C131.248 30.8749 131.542 30.9738 131.84 30.9563C132.277 30.9502 132.699 30.7908 133.037 30.5041V31.2432C132.661 31.507 132.215 31.6455 131.761 31.6403C131.263 31.6376 130.786 31.4353 130.43 31.0757C130.073 30.7162 129.865 30.2275 129.848 29.7121C129.831 29.1966 130.008 28.6945 130.341 28.3111C130.673 27.9278 131.136 27.6929 131.633 27.6558C131.865 27.6571 132.095 27.7098 132.307 27.8103C132.519 27.9108 132.707 28.0569 132.86 28.2387C133.013 28.4206 133.127 28.6342 133.195 28.8653C133.262 29.0963 133.281 29.3396 133.251 29.5789C133.252 29.6857 133.245 29.7923 133.231 29.898ZM132.5 29.3471C132.512 29.2202 132.498 29.092 132.46 28.9708C132.422 28.8496 132.36 28.7379 132.278 28.643C132.195 28.5481 132.095 28.4719 131.983 28.4193C131.871 28.3668 131.75 28.339 131.627 28.3377C131.365 28.3462 131.115 28.4534 130.925 28.6393C130.734 28.8252 130.615 29.0769 130.591 29.3471H132.5Z" fill="white"/>
<path d="M134.112 25.9697H134.904V31.5489H134.112V25.9697Z" fill="white"/>
<path d="M135.764 29.6443C135.774 29.2639 135.892 28.895 136.104 28.5839C136.315 28.2727 136.61 28.0329 136.952 27.8944C137.294 27.756 137.668 27.725 138.027 27.8054C138.385 27.8858 138.713 28.0739 138.97 28.3464C139.226 28.6188 139.399 28.9635 139.468 29.3374C139.537 29.7113 139.497 30.0978 139.355 30.4488C139.213 30.7998 138.975 31.0996 138.67 31.311C138.364 31.5223 138.006 31.6357 137.639 31.6371C137.387 31.6408 137.138 31.5915 136.906 31.492C136.674 31.3925 136.463 31.2451 136.288 31.0586C136.112 30.8721 135.975 30.6506 135.885 30.4074C135.795 30.1642 135.754 29.9046 135.764 29.6443ZM138.693 29.6443C138.706 29.4899 138.688 29.3345 138.641 29.1874C138.594 29.0404 138.519 28.9048 138.419 28.7889C138.32 28.673 138.199 28.5793 138.064 28.5133C137.929 28.4473 137.782 28.4106 137.633 28.4052C137.39 28.3752 137.145 28.4224 136.929 28.5404C136.713 28.6584 136.537 28.8417 136.424 29.0659C136.311 29.2901 136.266 29.5447 136.296 29.7958C136.326 30.0469 136.428 30.2827 136.59 30.4719C136.752 30.6612 136.966 30.7948 137.203 30.8552C137.44 30.9156 137.689 30.8999 137.917 30.8101C138.145 30.7203 138.342 30.5607 138.48 30.3525C138.619 30.1443 138.693 29.8973 138.693 29.6443Z" fill="white"/>
<path d="M140.34 27.7452H140.998L141.085 28.3928C141.212 28.1656 141.394 27.9771 141.614 27.8463C141.833 27.7154 142.082 27.6468 142.335 27.6475C142.796 27.7166 143.217 27.9548 143.523 28.3188C143.828 28.6827 143.998 29.1483 144 29.6308C144.002 30.1133 143.838 30.5806 143.536 30.9479C143.234 31.3151 142.815 31.5579 142.355 31.632C142.109 31.6334 141.866 31.5686 141.651 31.444C141.435 31.3195 141.255 31.1393 141.126 30.921V33H140.334L140.34 27.7452ZM143.209 29.6434C143.18 29.4362 143.095 29.2418 142.963 29.0833C142.832 28.9248 142.659 28.8088 142.465 28.7491C142.272 28.6894 142.066 28.6885 141.872 28.7465C141.678 28.8045 141.504 28.919 141.371 29.0764C141.238 29.2337 141.151 29.4273 141.121 29.6343C141.091 29.8412 141.119 30.0527 141.201 30.2437C141.284 30.4348 141.417 30.5973 141.586 30.712C141.755 30.8267 141.952 30.8887 142.154 30.8908C142.303 30.8847 142.45 30.8471 142.585 30.7803C142.72 30.7135 142.841 30.619 142.939 30.5024C143.038 30.3858 143.113 30.2496 143.159 30.1021C143.205 29.9546 143.222 29.7989 143.209 29.6444V29.6434Z" fill="white"/>
</svg>
